<svg version="1.1" xmlns="http://www.w3.org/2000/svg" style="display: block;" viewBox="0 0 1152 1152" width="288" height="288" preserveAspectRatio="none">
<defs>
	<linearGradient id="Gradient1" gradientUnits="userSpaceOnUse" x1="335.834" y1="398.629" x2="356.511" y2="502.102">
		<stop class="stop0" offset="0" stop-opacity="1" stop-color="rgb(71,102,195)"/>
		<stop class="stop1" offset="1" stop-opacity="1" stop-color="rgb(93,124,228)"/>
	</linearGradient>
</defs>
<path transform="translate(0,0)" fill="rgb(0,0,0)" d="M 536.379 0 L 617.829 0 C 629.741 4.43909 649.095 3.5847 662.206 6.0389 C 688.224 10.9088 714.118 16.2412 739.531 23.7302 C 893.966 69.6555 1022.22 177.966 1093.35 322.533 C 1116.94 371.069 1133.7 422.639 1143.15 475.773 C 1145.01 486.28 1149.97 530.66 1152 536.319 L 1152 616.517 C 1149.38 623.826 1148.3 637.827 1147.38 645.922 C 1125.75 837.086 1004.44 1004.17 834.987 1090.26 C 786.286 1115.09 734.256 1132.76 680.507 1142.73 C 659.393 1146.5 637.501 1148.21 616.553 1152 L 533.345 1152 C 526.495 1148.65 479.67 1144.52 467.684 1142.11 C 251.654 1098.7 83.5257 944.774 21.6669 732.605 C 15.3712 710.432 10.4565 687.889 6.95106 665.108 C 5.33425 654.088 3.38743 629.88 0.319188 620.726 L 0 619.797 L 0 532.326 C 3.06611 526.884 6.20697 488.541 8.25609 478.462 C 10.6831 466.523 13.2738 451.939 16.1805 439.526 C 28.8968 387.563 48.8452 337.644 75.4417 291.228 C 150.792 157.829 276.53 60.2529 424.46 20.3818 C 446.947 14.1485 469.792 9.28587 492.868 5.82079 C 501.913 4.54507 528.435 2.29865 535.52 0.256418 L 536.379 0 z M 468.489 472.586 C 466.829 466.001 465.882 455.229 461.476 452.32 C 462.375 458.449 463.252 465.51 465.871 471.123 L 468.489 472.586 z M 818.679 495.536 C 815.431 493.378 810.548 493.554 806.524 493.321 C 809.964 495.913 811.392 496.638 815.915 496.009 C 816.84 495.877 817.762 495.719 818.679 495.536 z"/>
<path transform="translate(0,0)" fill="rgb(110,125,235)" d="M 491.571 300.567 C 502.604 263.72 513.628 207.238 527 169.108 C 527.467 167.775 529.836 166.955 531.281 166.836 C 554.33 164.929 582.437 165.258 605.584 165.452 C 696.856 166.215 767.258 155.941 849.238 207.669 C 909.454 245.782 952.343 305.97 968.711 375.329 C 984.509 445.14 975.14 513.69 936.676 574.615 C 906.39 622.586 861.227 659.711 807.918 679.628 C 791.403 685.798 770.281 690.085 752.832 693.99 C 763.98 705.372 777.9 722.286 788.007 734.749 L 789.36 736.231 C 837.414 790.365 883.706 846.393 931.392 900.882 C 945.653 917.178 960.374 933.955 973.856 950.865 C 915.592 950.624 853.612 952.135 795.896 950.707 C 788.854 944.923 768.56 919.884 761.847 911.851 L 698.598 836.258 C 665.139 796.681 631.888 756.928 598.845 717.003 C 585.959 701.487 562.904 676.11 552.636 660.363 C 556.339 650.78 611.256 574.021 619.236 565.416 C 684.254 562.129 751.817 577.311 802.719 526.125 C 874.217 454.229 832.288 325.441 734.178 304.969 C 701.892 298.232 666.423 300.338 633.806 300.35 L 491.571 300.567 z"/>
<path transform="translate(0,0)" fill="rgb(84,86,185)" d="M 788.007 734.749 L 789.36 736.231 C 788.085 737.914 787.239 741.53 786.377 743.748 C 782.388 754.017 779.947 759.648 771.599 767.104 C 764.129 767.261 761.253 766.86 753.95 765.751 C 759.656 762.705 773.506 771.694 781.303 748.824 C 782.595 745.035 785.023 737.815 788.007 734.749 z"/>
<path transform="translate(0,0)" fill="rgb(90,102,203)" d="M 857.744 448.053 C 863.885 447.729 880.595 447.515 886.039 449.317 C 885.376 451.341 880.368 450.066 877.124 452.356 C 886.557 474.393 871.165 476.079 854.672 475.02 L 854.5 486.749 C 864.702 487.894 875.486 486.719 884.836 490.447 C 886.377 493.275 886.48 496.513 886.083 499.64 C 884.359 513.212 866.515 511.606 856.605 510.587 C 854.891 510.41 850.413 508.585 849.892 507.205 C 846.273 497.628 851.898 484.469 851.64 474.219 C 851.105 464.074 848.032 463.465 850.555 453.16 C 853.071 450.186 854.285 449.79 857.744 448.053 z"/>
<path transform="translate(0,0)" fill="rgb(110,125,235)" d="M 854.021 490.947 C 862.129 490.891 879.027 488.53 881.709 497.305 C 881.197 501.06 879.507 502.622 877.11 505.576 C 873.087 507.45 864.116 509.746 859.857 508.978 C 849.379 507.086 852.567 497.404 854.021 490.947 z"/>
<path transform="translate(0,0)" fill="rgb(110,125,235)" d="M 859.711 451.163 C 867.331 450.472 876.584 451.662 875.792 461.943 C 875.509 466.054 873.638 469.893 870.575 472.647 C 869.487 472.737 868.397 472.801 867.306 472.84 C 851.754 473.37 850.062 460.445 859.711 451.163 z"/>
<path transform="translate(0,0)" fill="rgb(90,102,203)" d="M 911.478 447.101 C 936.795 447.002 941.171 487.424 915.355 491.658 C 893.816 491.068 892.548 476.848 893.255 459.13 C 893.553 458.685 893.856 458.243 894.164 457.804 C 899.543 450.133 902.563 448.666 911.478 447.101 z"/>
<path transform="translate(0,0)" fill="rgb(110,125,235)" d="M 913.816 450.143 C 933.018 453.164 932.171 482.563 914.048 488.608 C 891.59 486.445 893.065 454.649 913.816 450.143 z"/>
<path transform="translate(0,0)" fill="rgb(118,142,244)" d="M 639.042 656.718 C 636.048 665.47 638.099 680.927 633.767 685.502 L 632.538 684.179 C 632.349 678.915 630.576 674.964 630.104 670.677 C 629.416 664.419 631.963 652.802 633.556 646.613 C 638.458 627.563 652.04 604.49 669.288 594.474 C 672.133 592.821 674.679 591.827 677.923 592.75 C 675.299 597.242 664.387 599.331 656.942 610.545 L 660.413 610.572 C 660.602 612.089 660.498 612.336 659.661 613.589 C 653.949 622.145 651.846 632.054 648.977 641.511 C 646.484 649.727 646.436 667.507 641.919 672.71 C 637.916 670.962 638.987 660.718 639.042 656.718 z"/>
<path transform="translate(0,0)" fill="rgb(90,102,203)" d="M 656.942 610.545 L 660.413 610.572 C 660.602 612.089 660.498 612.336 659.661 613.589 C 653.949 622.145 651.846 632.054 648.977 641.511 C 646.484 649.727 646.436 667.507 641.919 672.71 C 637.916 670.962 638.987 660.718 639.042 656.718 C 641.806 640.48 645.634 623.241 656.942 610.545 z"/>
<path transform="translate(0,0)" fill="rgb(84,86,185)" d="M 803.764 570.201 C 807.94 569.87 816.694 570.588 819.78 573.38 L 818.964 574.152 C 798.886 571.67 790.166 573.871 774.899 588.892 C 750.092 613.298 731.925 644.524 730.764 679.969 C 731.157 682.258 732.346 688.293 731.549 690.186 C 730.222 688.271 730.343 687.242 729.839 685.006 C 720.702 644.519 763.893 577.384 803.764 570.201 z"/>
<path transform="translate(0,0)" fill="rgb(90,102,203)" d="M 636.544 586.89 L 637.368 587.581 C 614.986 616.83 599.697 647.653 607.294 685.451 C 608.128 689.599 610.095 691.479 609.744 696.246 C 588.111 665.596 612.573 610.363 636.544 586.89 z"/>
<path transform="translate(0,0)" fill="rgb(90,102,203)" d="M 681.32 594.594 C 684.436 595.934 686.838 602.022 687.647 605.099 C 693.262 626.452 684.735 649.867 674.904 668.648 L 672.688 669.794 C 671.212 666.163 692.273 622.557 681.32 594.594 z"/>
<path transform="translate(0,0)" fill="rgb(84,86,185)" d="M 816.413 600.625 L 818.356 601.971 C 821.391 607.567 823.454 627.785 822.474 634.033 C 819.59 652.416 805.393 665.372 791.672 676.051 C 790.102 675.63 790.815 676.014 789.741 674.528 C 795.516 667.529 803.568 663.704 811.031 652.414 C 823.883 632.972 820.31 622.225 816.413 600.625 z"/>
<path transform="translate(0,0)" fill="rgb(84,86,185)" d="M 929.881 570.3 L 930.375 570.69 L 930.419 572.186 C 900.363 577.898 882.002 610.868 870.984 636.409 L 870.018 636.436 L 869.306 635.041 C 877.313 608.448 901.264 575.775 929.881 570.3 z"/>
<path transform="translate(0,0)" fill="rgb(90,102,203)" d="M 650.547 686.136 C 652.692 685.443 652.598 685.517 654.631 686.155 L 654.503 687.502 C 650.83 691.016 647.692 692.104 643.106 694.126 L 639.35 693.904 L 638.725 692.581 C 641.281 689.952 646.992 687.751 650.547 686.136 z"/>
<path transform="translate(0,0)" fill="rgb(90,102,203)" d="M 946.136 483.569 C 948.096 482.391 950.636 482.967 951.896 484.875 C 953.156 486.784 952.688 489.346 950.835 490.686 C 949.564 491.604 947.892 491.752 946.48 491.07 C 945.068 490.389 944.143 488.988 944.071 487.422 C 943.999 485.856 944.792 484.376 946.136 483.569 z"/>
<path transform="translate(0,0)" fill="rgb(84,86,185)" d="M 723.694 738.545 C 725.056 739.037 724.558 738.747 725.533 739.94 C 720.979 746.441 719.263 750.011 717.557 757.713 L 717.445 757.84 C 714.285 750.155 718.711 743.971 723.694 738.545 z"/>
<path transform="translate(0,0)" fill="rgb(110,125,235)" d="M 151.941 642.948 C 173.944 607.249 199.954 569.684 223.274 534.605 L 346.481 348.352 L 429.4 222.948 L 455.799 182.958 C 459.348 177.58 466.417 166.225 470.33 161.614 C 460.057 204.253 444.319 252.87 431.778 295.377 L 370.057 506.926 C 408.732 497.432 452.195 484.021 490.949 473.238 C 541.069 459.293 593.929 446.229 643.464 430.99 L 250.796 992.927 C 248.917 994.022 248.136 994.535 246.099 995.251 L 243.507 992.128 C 249.477 976.398 253.56 960.61 259.063 944.838 L 313.662 786.869 C 326.401 750.444 339.821 711.715 353.049 675.617 L 376.587 609.718 C 380.134 599.794 384.04 590.979 387.313 580.781 C 377.22 582.677 365.959 585.961 356.186 587.415 C 293.644 605.978 230.171 620.77 167.57 639.175 C 162.577 640.643 157.037 641.779 151.941 642.948 z"/>
<path transform="translate(0,0)" fill="rgb(90,102,203)" d="M 356.186 587.415 C 356.305 586.65 356.418 585.979 356.577 585.216 L 356.754 584.397 C 359.217 571.749 402.432 563.33 409.251 576.555 C 409.042 576.938 408.834 577.321 408.626 577.704 C 401.919 575.897 396.494 573.007 389.544 575.282 C 386.93 578.067 387.584 576.642 387.313 580.781 C 377.22 582.677 365.959 585.961 356.186 587.415 z"/>
<path transform="translate(0,0)" fill="url(#Gradient1)" d="M 334.843 511.155 C 319.326 507.163 330.586 385.385 363.308 394.699 L 363.324 395.661 C 334.266 404.099 332.971 455.891 336.017 480.166 C 334.684 491.498 335.41 500.362 334.843 511.155 z"/>
<path transform="translate(0,0)" fill="rgb(90,102,203)" d="M 497.173 508.242 L 500.454 509.778 C 498.387 513.102 491.379 554.108 489.55 562.707 C 481.386 601.078 460.898 652.269 458.299 690.381 C 457.617 690.51 457.139 690.25 456.35 690.039 C 450.439 678.147 485 576.062 487.64 556.604 C 488.336 551.472 495.629 510.675 497.173 508.242 z"/>
<path transform="translate(0,0)" fill="rgb(118,142,244)" d="M 264.694 542.3 C 266.756 542.121 294.119 542.727 294.779 542.986 L 295.147 544.819 C 290.984 547.811 278.557 546.404 273.674 544.773 C 272.288 544.309 268.29 545.848 266.705 546.196 C 237.41 552.634 215.358 580.32 201.703 605.336 C 199.02 610.466 193.73 625.22 189.389 626.934 C 186.813 622.073 191.04 614.345 193.6 609.96 C 209.878 582.082 232.321 551.384 264.694 542.3 z"/>
<path transform="translate(0,0)" fill="rgb(118,142,244)" d="M 336.017 480.166 C 341.76 454.729 344.435 427.554 366.834 412.289 C 346.822 445.117 343.225 455.062 341.588 496.404 C 341.329 502.95 342.547 509.384 336.85 511.531 L 334.843 511.155 C 335.41 500.362 334.684 491.498 336.017 480.166 z"/>
<path transform="translate(0,0)" fill="rgb(90,102,203)" d="M 400.286 595.181 C 402.275 596.308 403.488 596.659 404.145 599.144 C 410.271 622.309 404.639 640.541 396.428 660.659 L 394.623 661.389 C 394.727 661.671 406.105 616.628 400.286 595.181 z"/>
<path transform="translate(0,0)" fill="rgb(90,102,203)" d="M 374.869 682.002 L 376.33 684.282 C 373.661 689.22 363.304 692.003 357.692 694.062 L 356.497 693.363 C 358.068 690.586 370.723 684.501 374.869 682.002 z"/>
<path transform="translate(0,0)" fill="rgb(31,31,31)" d="M 700.466 454.091 C 714.551 447.628 729.136 439.894 744.653 438.698 L 744.592 439.574 C 738.183 443.264 729.032 445.734 721.745 448.558 C 719.34 450.091 712.561 454.314 709.913 454.889 C 701.101 457.65 676.767 476.424 671.368 485.192 C 668.751 489.441 666.457 496.203 661.805 496.855 C 659.794 486.526 680.712 472.537 684.648 464.223 C 686.738 453.459 691.032 453.599 700.466 454.091 z"/>
<path transform="translate(0,0)" fill="rgb(31,31,31)" d="M 684.648 464.223 C 686.738 453.459 691.032 453.599 700.466 454.091 C 693.585 458.752 692.853 461.461 684.648 464.223 z"/>
<path transform="translate(0,0)" fill="rgb(31,31,31)" d="M 974.211 641.712 C 975.123 645.106 973.24 654.151 972.178 657.857 C 963.083 689.616 927.652 725.064 892.342 715.146 L 891.697 714.795 L 891.9 714.048 C 905.266 714.561 916.373 714.437 928.282 707.473 C 956.081 691.215 965.785 670.691 974.211 641.712 z"/>
<path transform="translate(0,0)" fill="rgb(31,31,31)" d="M 573.224 693.193 C 573.944 693.367 574.675 694.022 575.369 694.509 C 574.377 696.204 574.798 696.145 573.258 696.95 C 545.846 711.289 508.596 721.78 478.203 713.77 L 476.008 712.467 C 476.807 711.337 490.843 713.48 493.514 713.618 C 516.644 714.818 553.631 704.259 573.224 693.193 z"/>
<path transform="translate(0,0)" fill="rgb(31,31,31)" d="M 287.961 631.001 C 300.802 647.999 282.875 689.121 277.146 707.669 C 273.342 719.986 267.618 738.325 257.162 746.251 L 255.811 745.807 L 255.4 744.387 C 256.474 743.376 261.112 738.869 261.664 737.602 C 274.692 707.676 294.569 663.667 287.961 631.001 z"/>
<path transform="translate(0,0)" fill="rgb(31,31,31)" d="M 746.19 495.599 C 742.567 498.958 733.136 509.229 728.515 508.523 C 729.43 504.069 746.12 490.251 749.877 484.972 C 757.313 474.215 761.967 460.964 766.882 448.88 C 769.004 443.664 765.076 441.616 769.803 436.67 C 772.038 443.676 768.129 455.289 766.275 462.537 C 759.742 473.607 752.26 485.125 746.19 495.599 z"/>
<path transform="translate(0,0)" fill="rgb(31,31,31)" d="M 263.703 668.908 L 264.35 669.697 C 264.122 682.134 239.736 703.201 228.968 708.95 C 214.321 716.771 204.773 718.131 189.266 713.779 C 188.642 712.996 188.85 713.48 188.854 712.253 C 196.702 714.233 204.919 714.223 212.762 712.225 C 234.208 706.918 252.609 687.152 263.703 668.908 z"/>
<path transform="translate(0,0)" fill="rgb(31,31,31)" d="M 783.217 429.626 L 785.493 431.332 C 788.43 441.242 786.181 476.503 787.943 490.603 C 786.965 489.981 784.612 488.155 784.227 487.35 C 780.479 479.523 781.711 436.77 783.217 429.626 z"/>
<path transform="translate(0,0)" fill="rgb(31,31,31)" d="M 1044.36 456.47 C 1053.24 461.99 1053.4 486.63 1043.56 493.093 C 1034.83 498.828 1030.8 497.883 1021.11 496.816 C 1018.9 496.237 1018.99 496.317 1017.26 494.844 C 1019.26 493.409 1028.16 493.848 1032.07 492.781 C 1049.95 487.906 1048.37 471.488 1044.36 456.47 z"/>
<path transform="translate(0,0)" fill="rgb(31,31,31)" d="M 650.404 452.577 C 651.625 453.642 651.213 453.322 651.918 454.977 C 651.021 463.926 645.398 488.108 641.679 496.265 C 639.213 497.93 636.257 497.433 633.099 497.381 C 632.139 496.332 632.561 496.859 632.238 495.159 C 643.529 486.957 643.209 465.463 650.404 452.577 z"/>
<path transform="translate(0,0)" fill="rgb(31,31,31)" d="M 718.128 493.582 C 721.366 495.504 721.406 501.097 721.03 504.424 C 719.177 520.827 697.806 518.483 686.233 516.712 C 683.946 515.816 684.333 516.354 683.157 514.636 C 686.943 512.726 703.371 515.93 709.476 511.771 C 715.73 507.511 716.541 500.531 718.128 493.582 z"/>
<path transform="translate(0,0)" fill="rgb(31,31,31)" d="M 832.604 674.877 C 832.478 678.737 822.166 710.249 820.12 716.994 C 816.277 729.422 812.959 742.006 810.176 754.713 C 806.838 745.937 826.55 680.352 832.604 674.877 z"/>
<path transform="translate(0,0)" fill="rgb(31,31,31)" d="M 1082.13 454.195 L 1083.44 455.502 C 1081.27 459.861 1072.99 457.917 1071.45 463.256 C 1068.62 473.019 1073.73 490.753 1067.35 498.66 L 1065.81 496.149 C 1066.9 484.11 1066.21 470.247 1066.84 457.726 L 1082.13 454.195 z"/>
<path transform="translate(0,0)" fill="rgb(31,31,31)" d="M 363.769 934.072 C 370.994 934.118 376.885 933.997 383.904 935.798 L 383.891 937.638 L 384.574 937.328 L 384.63 936.152 L 384.386 937.409 C 370.529 941.153 366.95 930.982 358.494 947.47 C 357.228 954.117 358.134 955.699 358.465 962.319 L 357.319 962.864 C 352.662 959.641 353.531 950.82 354.227 945.87 C 355.041 940.071 359.282 937.093 363.769 934.072 z"/>
<path transform="translate(0,0)" fill="rgb(31,31,31)" d="M 234.168 935.689 C 241.366 939.914 239.451 957.81 238.796 965.161 C 230.13 979.03 225.724 977.779 210.242 976.948 L 208.55 975.873 L 208.324 974.569 C 211.551 973.348 220.649 973.804 224.589 973.827 C 239.864 964.68 239.176 951.025 234.168 935.689 z"/>
<path transform="translate(0,0)" fill="rgb(31,31,31)" d="M 741.005 452.89 C 744.516 453.366 748.422 453.376 749.978 456.87 C 745.262 459.273 740.734 458.243 736.988 461.787 C 733.885 466.339 733.754 474.482 733.809 479.832 L 734.51 480.52 L 734.524 482.153 L 732.85 481.849 C 723.994 473.189 730.083 458.044 741.005 452.89 z"/>
<path transform="translate(0,0)" fill="rgb(31,31,31)" d="M 173.94 934.132 C 178.143 933.898 191.468 934.067 193.795 937.268 L 193.798 936.224 L 193.407 937.437 C 179.72 941.221 176.096 930.396 167.939 946.934 C 166.32 954.248 168.196 957.401 167.239 963.116 L 165.711 962.503 C 158.97 951.162 163.944 940.908 173.94 934.132 z"/>
<path transform="translate(0,0)" fill="rgb(31,31,31)" d="M 1098.46 456.186 L 1101.06 457.762 C 1096.54 466.799 1100.19 492.025 1095.95 498.478 L 1093.74 496.935 C 1092.91 487.289 1094.07 471.758 1094.38 461.638 C 1094.48 458.372 1096.05 457.956 1098.46 456.186 z"/>
<path transform="translate(0,0)" fill="rgb(31,31,31)" d="M 411.738 935.28 C 413.656 934.786 416.274 934.536 417.821 935.743 C 414.313 938.057 409.844 938.369 405.647 939.007 C 403.402 948.402 403.153 963.513 403.035 973.25 C 402.568 976.234 403.001 975.127 400.764 977.517 L 399.393 976.701 C 399.446 966.598 400.061 948.794 401.282 939.096 C 403.102 937.394 408.625 936.307 411.738 935.28 z"/>
<path transform="translate(0,0)" fill="rgb(31,31,31)" d="M 211.621 934.109 C 215.839 933.917 220.832 932.918 223.544 936.47 C 217.721 940.257 216.297 937.452 210.923 940.417 C 207.924 943.805 207.633 950.732 207.18 955.233 C 207.848 957.862 208.766 959.955 207.901 962.391 L 206.328 962.23 C 198.676 953.06 203.7 941.199 211.621 934.109 z"/>
<path transform="translate(0,0)" fill="rgb(31,31,31)" d="M 1021.87 454.074 C 1026.08 453.727 1031.56 452.786 1033.79 456.894 C 1028.96 459.693 1027.46 457.912 1021.86 459.809 C 1018.16 462.968 1017.43 470.043 1016.78 474.647 C 1017.31 477.429 1017.77 478.771 1017.3 481.596 L 1015.97 481.912 C 1009.25 473.61 1013.97 460.433 1021.87 454.074 z"/>
<path transform="translate(0,0)" fill="rgb(31,31,31)" d="M 904.491 625.76 L 906.085 627.442 C 907.067 633.069 887.209 659.48 897.627 689.222 L 895.915 689.08 C 887.688 665.409 895.202 646.927 904.491 625.76 z"/>
<path transform="translate(0,0)" fill="rgb(31,31,31)" d="M 1121.95 453.748 C 1127.18 460.67 1127.23 491.069 1123.53 498.942 C 1122.34 497.895 1121.96 497.413 1120.94 496.246 C 1121.77 487.735 1121.31 457.3 1121.95 453.748 z"/>
<path transform="translate(0,0)" fill="rgb(31,31,31)" d="M 813.023 454.183 C 816.382 453.853 818.975 453.336 822.172 454.516 L 822.767 455.924 C 819.377 458.18 815.077 459.158 811.068 461 C 807.81 464.802 808.124 471.297 808.134 476.169 C 808.577 479.015 809.178 479.67 808.107 481.956 L 806.365 481.081 C 800.538 470.978 803.896 460.727 813.023 454.183 z"/>
<path transform="translate(0,0)" fill="rgb(31,31,31)" d="M 369.905 610.084 C 371.302 612.236 368.545 616.201 367.311 618.233 C 357.153 634.968 353.33 644.197 349.341 663.147 C 348.688 662.445 348.284 661.549 348.189 660.595 C 347.013 648.162 362.081 619.436 369.905 610.084 z"/>
<path transform="translate(0,0)" fill="rgb(31,31,31)" d="M 685.456 493.122 C 690.663 493.033 704.155 492.733 707.39 497.109 C 705.484 498.861 704.563 498.173 701.25 498.043 C 682.157 497.352 692.768 503.031 684.986 505.949 L 683.861 504.473 C 683.687 500.283 684.564 497.201 685.456 493.122 z"/>
<path transform="translate(0,0)" fill="rgb(31,31,31)" d="M 311.226 934.805 C 316.931 939.28 316.119 972.818 313.772 978.815 C 313.643 978.721 313.514 978.626 313.385 978.532 C 313.187 978.372 310.975 976.433 310.975 976.435 C 311.87 964.137 312.668 946.399 311.226 934.805 z"/>
<path transform="translate(0,0)" fill="rgb(31,31,31)" d="M 428.099 933.781 C 434.231 938.123 431.908 970.736 430.541 978.019 C 430.027 977.851 428.315 976.849 428.341 976.409 C 429.179 962.219 429.675 947.922 428.099 933.781 z"/>
<path transform="translate(0,0)" fill="rgb(31,31,31)" d="M 1002.47 491.416 L 1004.46 491.462 L 1004.51 493.183 C 999.901 497.964 987.32 497.227 981.027 496.991 L 978.754 495.645 L 979.125 494.507 C 986.738 492.472 993.728 494.012 1002.47 491.416 z"/>
<path transform="translate(0,0)" fill="rgb(31,31,31)" d="M 185.471 638.02 C 185.993 642.7 178.702 663.49 181.68 670.785 C 181.967 671.488 182.541 678.166 182.73 679.579 C 175.797 671.676 177.902 645.989 185.471 638.02 z"/>
<path transform="translate(0,0)" fill="rgb(31,31,31)" d="M 383.101 971.414 C 384.26 971.264 383.656 971.241 384.921 972.002 L 384.356 973.925 C 378.501 978.173 367.056 977.135 360.225 976.486 C 359.174 976.143 358.768 975.69 357.818 974.998 C 360.6 973.082 375.983 973.691 383.101 971.414 z"/>
<path transform="translate(0,0)" fill="rgb(31,31,31)" d="M 193.227 971.369 L 194.547 972.646 L 193.508 974.327 C 186.733 977.293 177.807 977.039 170.47 976.847 L 168.678 975.061 C 170.813 973.375 186.05 973.498 193.227 971.369 z"/>
<path transform="translate(0,0)" fill="rgb(31,31,31)" d="M 286.44 951.37 C 287.985 951.958 287.399 951.658 288.58 953.031 C 288.602 959.365 288.382 972.522 286.518 978.21 C 285.825 977.825 284.22 976.983 284.153 976.342 C 283.626 971.316 285.908 955.703 286.44 951.37 z"/>
<path transform="translate(0,0)" fill="rgb(90,102,203)" d="M 243.507 992.128 L 246.099 995.251 C 248.136 994.535 248.917 994.022 250.796 992.927 C 245.717 1000.57 241.472 1006.46 235.847 1013.71 C 238.185 1006.64 240.991 999.189 243.507 992.128 z"/>
<path transform="translate(0,0)" fill="rgb(31,31,31)" d="M 797.499 701.063 L 798.22 701.206 L 798.435 702.663 C 792.931 708.039 783.292 712.353 776.27 715.661 L 774.642 714.334 C 775.441 712.574 792.922 703.91 797.499 701.063 z"/>
<path transform="translate(0,0)" fill="rgb(31,31,31)" d="M 491.235 658.716 C 492.107 662.82 486.778 682.745 485.363 687.485 C 482.587 681.783 486.977 663.464 491.235 658.716 z"/>
<path transform="translate(0,0)" fill="rgb(31,31,31)" d="M 261.993 638.455 L 263.934 638.472 L 263.7 639.574 C 256.879 643.636 244.56 642.697 236.82 641.852 C 235.804 641.74 235.927 641.614 234.944 641.007 C 235.806 640.476 257.944 639.007 261.993 638.455 z"/>
<path transform="translate(0,0)" fill="rgb(0,0,0)" fill-opacity="0.988235" d="M 461.476 452.32 C 465.882 455.229 466.829 466.001 468.489 472.586 L 465.871 471.123 C 463.252 465.51 462.375 458.449 461.476 452.32 z"/>
<path transform="translate(0,0)" fill="rgb(31,31,31)" d="M 938.431 591.67 L 940.517 592.233 L 940.677 593.423 C 937.331 595.384 934.011 597.386 930.715 599.43 L 928.713 599.173 L 928.423 597.855 C 930.613 595.302 935.285 593.27 938.431 591.67 z"/>
<path transform="translate(0,0)" fill="rgb(31,31,31)" d="M 415.698 466.818 C 419.595 470.967 414.893 477.364 411.516 480.244 C 409.441 476.466 414.409 475.493 415.698 466.818 z"/>
<path transform="translate(0,0)" fill="rgb(31,31,31)" fill-opacity="0.988235" d="M 806.524 493.321 C 810.548 493.554 815.431 493.378 818.679 495.536 C 817.762 495.719 816.84 495.877 815.915 496.009 C 811.392 496.638 809.964 495.913 806.524 493.321 z"/>
</svg>