<svg version="1.1" xmlns="http://www.w3.org/2000/svg" style="display: block;" viewBox="0 0 1232 1152" width="308" height="288" preserveAspectRatio="none">
<defs>
	<linearGradient id="Gradient1" gradientUnits="userSpaceOnUse" x1="413.172" y1="978.613" x2="408.024" y2="968.762">
		<stop class="stop0" offset="0" stop-opacity="1" stop-color="rgb(17,17,21)"/>
		<stop class="stop1" offset="1" stop-opacity="1" stop-color="rgb(31,32,26)"/>
	</linearGradient>
	<linearGradient id="Gradient2" gradientUnits="userSpaceOnUse" x1="1182.1" y1="955.34" x2="1172.03" y2="953.829">
		<stop class="stop0" offset="0" stop-opacity="1" stop-color="rgb(22,20,23)"/>
		<stop class="stop1" offset="1" stop-opacity="1" stop-color="rgb(27,31,26)"/>
	</linearGradient>
</defs>
<path transform="translate(0,0)" fill="rgb(0,0,0)" d="M 0 0 L 278.114 0 L 280.569 0 L 1232 0 L 1232 455.366 L 1232 457.862 L 1232 493.232 L 1232 495.709 L 1232 1152 L 0 1152 L 0 0 z"/>
<path transform="translate(0,0)" fill="rgb(21,21,21)" d="M 1232 457.862 C 1227.77 458.037 1224.16 456.725 1219.63 457.511 C 1206.31 459.823 1206.47 471.795 1208.53 482.554 L 1207.11 482.6 C 1202.25 477.12 1203.63 461.249 1210.41 457.085 C 1217.48 452.737 1224.41 454.273 1232 455.366 L 1232 457.862 z"/>
<path transform="translate(0,0)" fill="rgb(21,21,21)" d="M 1232 495.709 C 1230.93 495.932 1229.86 496.123 1228.77 496.283 C 1223.32 497.137 1213.26 498.272 1208.56 494.877 C 1212.17 493.239 1227.22 493.244 1232 493.232 L 1232 495.709 z"/>
<path transform="translate(0,0)" fill="rgb(21,21,21)" d="M 268.177 11.8199 L 271.424 13.6033 C 266.687 15.9463 253.548 17.9145 249.336 15.2114 C 252.942 13.0344 261.733 14.854 268.177 11.8199 z"/>
<path transform="translate(0,0)" fill="rgb(21,21,21)" d="M 278.114 0 L 280.569 0 C 279.255 5.93565 275.702 9.40334 271.424 13.6033 L 268.177 11.8199 C 272.723 8.86637 275.043 4.55071 278.114 0 z"/>
<path transform="translate(0,0)" fill="rgb(116,123,234)" d="M 531.571 300.567 C 542.679 263.469 553.617 207.228 567 169.108 C 567.468 167.774 569.836 166.954 571.281 166.834 C 594.276 164.929 622.328 165.256 645.424 165.452 C 736.76 166.226 807.205 155.906 889.238 207.669 C 949.454 245.782 992.343 305.969 1008.71 375.329 C 1024.51 445.145 1015.14 513.684 976.676 574.615 C 946.392 622.585 901.225 659.712 847.918 679.628 C 831.404 685.798 810.281 690.085 792.832 693.99 C 804.423 705.97 817.444 721.83 828.026 734.725 L 829.343 736.242 C 876.546 788.95 921.581 844.213 968.354 897.359 C 983.614 914.697 999.467 932.826 1013.85 950.858 C 955.606 950.633 893.593 952.134 835.895 950.707 C 829.02 945.092 808.725 920.08 802.158 912.222 L 739.768 837.652 L 639.19 717.429 C 626.23 701.831 602.929 676.144 592.639 660.369 C 596.331 650.786 651.254 574.021 659.236 565.415 C 724.417 562.021 791.941 577.439 842.951 525.893 C 913.98 454.119 872.36 325.877 774.734 305.099 C 742.319 298.2 706.538 300.336 673.77 300.349 L 531.571 300.567 z"/>
<path transform="translate(0,0)" fill="rgb(84,86,185)" d="M 828.026 734.725 L 829.343 736.242 C 827.966 737.943 827.342 741.19 826.472 743.432 C 822.419 753.868 820.078 759.543 811.597 767.104 C 804.335 767.296 800.647 766.731 793.544 765.739 L 793.852 765.841 C 798.973 764.106 805.37 765.62 809.695 764.084 C 820.554 760.227 821.951 740.912 828.026 734.725 z"/>
<path transform="translate(0,0)" fill="rgb(89,105,205)" d="M 897.742 448.055 C 903.471 447.68 921.081 447.505 926.013 449.381 C 925.486 451.541 920.264 449.877 917.127 452.356 C 926.535 474.392 911.196 476.079 894.684 475.023 L 894.5 486.754 C 904.676 487.878 915.532 486.733 924.837 490.452 C 926.998 494.414 926.105 496.202 925.864 500.97 C 925.214 513.842 893.889 513.622 889.528 506.653 C 886.385 501.632 892.244 480.336 891.635 473.417 C 890.94 465.53 888.398 461.974 890.554 453.161 C 893.072 450.187 894.282 449.792 897.742 448.055 z"/>
<path transform="translate(0,0)" fill="rgb(116,123,234)" d="M 894.035 490.922 C 902.148 490.888 919.03 488.547 921.706 497.304 C 921.199 501.059 919.497 502.634 917.101 505.588 C 913.07 507.453 904.129 509.733 899.864 508.97 C 889.35 507.089 892.569 497.389 894.035 490.922 z"/>
<path transform="translate(0,0)" fill="rgb(116,123,234)" d="M 899.711 451.166 C 907.338 450.464 916.582 451.668 915.79 461.944 C 915.51 466.054 913.64 469.893 910.576 472.647 C 909.487 472.736 908.396 472.8 907.305 472.84 C 891.763 473.373 890.063 460.443 899.711 451.166 z"/>
<path transform="translate(0,0)" fill="rgb(89,105,205)" d="M 951.477 447.101 C 976.777 447.004 981.221 487.403 955.303 491.67 C 933.781 490.918 932.545 476.925 933.255 459.133 C 933.559 458.68 933.868 458.229 934.18 457.782 C 939.543 450.129 942.561 448.665 951.477 447.101 z"/>
<path transform="translate(0,0)" fill="rgb(116,123,234)" d="M 953.817 450.143 C 973.004 453.146 972.185 482.558 954.041 488.612 C 931.59 486.43 933.064 454.64 953.817 450.143 z"/>
<path transform="translate(0,0)" fill="rgb(98,129,238)" d="M 679.068 656.668 C 677.218 662.726 677.022 682.06 673.909 684.065 C 664.206 672.496 674.728 638.56 681.471 626.215 C 690.13 610.361 699.636 596.998 717.727 591.44 L 718.491 593.448 C 718.634 593.156 719.004 592.446 719.097 592.168 C 716.346 597.769 705.196 598.028 696.942 610.547 L 700.412 610.572 C 700.392 611.232 695.086 623.24 694.314 624.391 C 688.359 633.26 686.517 667.977 681.788 672.837 C 677.919 669.901 678.973 661.324 679.068 656.668 z"/>
<path transform="translate(0,0)" fill="rgb(89,105,205)" d="M 696.942 610.547 L 700.412 610.572 C 700.392 611.232 695.086 623.24 694.314 624.391 C 688.359 633.26 686.517 667.977 681.788 672.837 C 677.919 669.901 678.973 661.324 679.068 656.668 C 681.525 640.728 685.952 622.866 696.942 610.547 z"/>
<path transform="translate(0,0)" fill="rgb(84,86,185)" d="M 843.767 570.2 C 847.945 569.875 856.694 570.587 859.781 573.381 L 858.964 574.151 C 838.874 571.688 830.194 573.845 814.898 588.89 C 790.076 613.306 771.945 644.509 770.764 679.966 C 771.114 682.209 772.477 688.443 771.541 690.166 C 770.154 688.17 770.231 686.759 769.729 684.418 C 761.074 644.038 804.027 577.353 843.767 570.2 z"/>
<path transform="translate(0,0)" fill="rgb(89,105,205)" d="M 721.318 594.593 C 724.4 595.811 726.885 602.112 727.662 605.101 C 733.222 626.495 724.751 649.834 714.903 668.648 L 712.689 669.79 C 711.236 666.282 732.257 622.447 721.318 594.593 z"/>
<path transform="translate(0,0)" fill="rgb(84,86,185)" d="M 856.41 600.626 L 858.356 601.971 C 861.394 607.556 863.453 627.793 862.473 634.032 C 859.584 652.422 845.401 665.373 831.668 676.046 C 830.102 675.63 830.813 676.011 829.741 674.528 C 835.48 667.558 843.574 663.709 851.031 652.415 C 863.875 632.964 860.32 622.232 856.41 600.626 z"/>
<path transform="translate(0,0)" fill="rgb(84,86,185)" d="M 969.855 570.295 L 970.362 570.683 L 970.418 572.184 C 939.996 578.442 922.217 610.316 910.988 636.41 L 910.02 636.434 L 909.306 635.041 C 917.317 608.439 941.245 575.814 969.855 570.295 z"/>
<path transform="translate(0,0)" fill="rgb(89,105,205)" d="M 690.548 686.131 C 692.692 685.45 692.599 685.523 694.632 686.147 L 694.504 687.506 C 690.827 691.015 687.699 692.094 683.111 694.109 L 679.349 693.901 L 678.728 692.583 C 681.284 689.957 686.996 687.749 690.548 686.131 z"/>
<path transform="translate(0,0)" fill="rgb(89,105,205)" d="M 986.139 483.571 C 988.098 482.394 990.636 482.971 991.895 484.878 C 993.154 486.785 992.686 489.345 990.834 490.684 C 989.564 491.602 987.893 491.75 986.482 491.069 C 985.071 490.388 984.146 488.987 984.075 487.422 C 984.003 485.857 984.796 484.378 986.139 483.571 z"/>
<path transform="translate(0,0)" fill="rgb(84,86,185)" d="M 763.694 738.545 C 765.056 739.037 764.558 738.747 765.534 739.94 C 760.932 746.645 759.262 749.876 757.555 757.713 C 753.56 751.313 759.504 743.064 763.694 738.545 z"/>
<path transform="translate(0,0)" fill="rgb(98,129,238)" d="M 191.918 643.01 C 210.33 611.999 238.459 571.897 258.774 541.331 L 369.76 373.61 L 461.984 234.22 C 476.076 212.869 495.464 181.276 510.33 161.601 C 505.447 183.223 499.021 202.91 492.667 224.013 L 472.898 291.505 C 452.156 362.687 432.079 436.696 409.809 507.171 C 424.825 503.339 439.461 498.641 454.383 494.524 L 561.351 465.321 C 581.325 459.846 600.42 452.949 620.894 449.2 C 641.489 442.878 663.354 437.309 683.513 430.958 L 636.554 497.945 C 624.887 516.617 606.705 541.017 593.784 559.476 L 516.307 670.228 L 290.805 992.935 C 288.701 994.188 288.248 994.569 285.914 995.182 L 283.658 991.705 C 289.184 977.17 293.054 962.634 297.993 947.964 L 335.464 838.806 L 392.331 677.593 C 403.593 646.246 416.874 612.091 427.368 580.751 C 417.34 582.707 405.674 585.996 395.954 587.469 C 352.41 600.451 308.864 611.404 264.962 623.077 C 240.411 629.604 216.587 637.107 191.918 643.01 z"/>
<path transform="translate(0,0)" fill="rgb(116,123,234)" d="M 620.894 449.2 C 641.489 442.878 663.354 437.309 683.513 430.958 L 636.554 497.945 L 636.207 494.972 C 639.87 488.721 636.068 486.159 633.749 479.351 C 630.834 470.791 630.093 456.846 626.772 448.954 C 624.384 449.437 624.056 449.387 621.569 449.243 L 620.894 449.2 z"/>
<path transform="translate(0,0)" fill="rgb(89,105,205)" d="M 395.954 587.469 C 398.59 568.733 446.699 564.041 449.166 577.615 C 442.401 576.995 437.068 572.372 429.582 575.385 C 427.165 578.082 427.834 576.745 427.368 580.751 C 417.34 582.707 405.674 585.996 395.954 587.469 z"/>
<path transform="translate(0,0)" fill="rgb(89,105,205)" d="M 537.183 508.243 L 540.253 509.488 C 540.151 514.956 530.845 556.932 529.248 564.24 C 520.092 606.137 502.366 647.243 498.124 690.337 L 497.365 690.564 C 488.273 684.306 526.1 571.911 527.523 557.151 C 528.042 551.766 535.829 510.352 537.183 508.243 z"/>
<path transform="translate(0,0)" fill="rgb(116,123,234)" d="M 304.702 542.3 C 310.595 542.009 329.861 541.548 334.412 544.354 L 334.094 545.731 C 326.374 547.489 312.654 544.067 304.829 546.309 C 276.428 554.446 255.427 580.178 241.703 605.336 C 239.361 610.159 233.292 625.561 229.181 626.837 C 227.249 620.811 232.122 612.353 235.257 607.072 C 251.159 580.286 273.606 550.987 304.702 542.3 z"/>
<path transform="translate(0,0)" fill="rgb(89,105,205)" d="M 374.83 510.117 C 367.119 504.768 368.49 483.526 368.889 472.036 C 369.709 448.418 373.479 413.543 392.573 396.431 C 395.26 394.023 402.058 392.409 404.427 395.955 C 372.247 402.19 373.828 463.907 375.01 488.627 C 374.901 495.712 374.683 503.059 374.83 510.117 z"/>
<path transform="translate(0,0)" fill="rgb(116,123,234)" d="M 375.01 488.627 C 376.84 482.233 376.71 475.496 378.354 469.112 C 384.131 446.693 386.327 425.954 406.854 412.275 C 387.486 443.977 383.375 454.151 381.665 494.202 C 381.413 500.119 382.574 508.997 377.457 511.482 C 376.438 511.018 375.688 510.778 374.83 510.117 C 374.683 503.059 374.901 495.712 375.01 488.627 z"/>
<path transform="translate(0,0)" fill="rgb(89,105,205)" d="M 440.239 595.156 C 442.261 596.293 443.472 596.624 444.141 599.13 C 450.318 622.253 444.653 640.56 436.433 660.65 L 435.213 661.413 C 432.973 659.31 436.285 653.51 437.034 650.684 C 441.539 633.691 444.905 612.189 440.239 595.156 z"/>
<path transform="translate(0,0)" fill="rgb(89,105,205)" d="M 414.892 681.97 L 416.336 684.254 C 413.656 689.232 403.356 691.989 397.709 694.062 L 396.461 693.07 C 397.776 690.8 411.191 684.21 414.892 681.97 z"/>
<path transform="translate(0,0)" fill="rgb(21,21,21)" d="M 786.189 495.599 C 782.563 498.96 773.115 509.23 768.496 508.567 C 769.407 504.195 789.733 487.2 794.441 477.821 C 801.951 462.863 805.966 452.983 809.209 436.665 C 812.495 441.867 807.769 456.779 806.274 462.537 C 812.171 474.669 805.057 499.463 789.546 498.191 C 788.087 497.293 787.307 496.94 786.189 495.599 z"/>
<path transform="translate(0,0)" fill="rgb(39,39,40)" d="M 786.189 495.599 C 782.563 498.96 773.115 509.23 768.496 508.567 C 769.407 504.195 789.733 487.2 794.441 477.821 C 801.951 462.863 805.966 452.983 809.209 436.665 C 812.495 441.867 807.769 456.779 806.274 462.537 C 799.751 473.594 792.239 485.149 786.189 495.599 z"/>
<path transform="translate(0,0)" fill="rgb(39,39,40)" d="M 740.405 454.118 C 754.505 447.649 769.122 439.896 784.653 438.698 L 784.592 439.574 C 778.177 443.265 769.031 445.729 761.737 448.562 C 759.324 450.079 752.582 454.324 749.918 454.889 C 739.567 458.184 722.552 472.525 715.058 481.09 C 711.831 484.779 705.48 497.346 700.962 497.443 C 700.131 486.489 721.829 471.605 724.675 464.217 C 726.748 453.507 730.932 453.575 740.405 454.118 z"/>
<path transform="translate(0,0)" fill="rgb(21,21,21)" d="M 724.675 464.217 C 726.748 453.507 730.932 453.575 740.405 454.118 C 733.558 458.835 732.839 461.401 724.675 464.217 z"/>
<path transform="translate(0,0)" fill="rgb(39,39,40)" d="M 1014.13 641.694 C 1015.17 644.963 1013.27 654.247 1012.21 657.889 C 1003.02 689.584 967.626 725.095 932.322 715.14 L 931.482 714.691 C 932.192 713.576 936.219 714.19 937.764 714.218 C 982.19 715.024 1003.73 677.75 1014.13 641.694 z"/>
<path transform="translate(0,0)" fill="rgb(39,39,40)" d="M 613.224 693.192 C 613.944 693.366 614.675 694.023 615.369 694.51 C 614.441 696.097 614.788 696.158 613.361 696.901 C 585.51 711.389 548.959 721.704 518.203 713.776 C 517.026 713.187 516.576 712.714 515.557 711.894 L 516.43 711.13 C 540.994 720.008 591.556 705.519 613.224 693.192 z"/>
<path transform="translate(0,0)" fill="rgb(39,39,40)" d="M 328.135 631.892 C 341.958 643.546 320.85 695.716 316.06 710.755 C 312.364 722.359 307.106 738.771 297.162 746.252 L 295.808 745.81 L 295.399 744.386 C 308.194 732.346 312.609 711.402 318.457 694.965 C 325.767 674.419 332.625 653.759 328.135 631.892 z"/>
<path transform="translate(0,0)" fill="rgb(21,21,21)" d="M 749.918 454.889 C 752.582 454.324 759.324 450.079 761.737 448.562 L 761.347 449.275 C 754.835 461.364 757.38 478.451 743.63 482.774 C 739.814 483.973 726.083 486.009 723.986 481.366 C 729.26 474.922 742.597 478.7 747.334 474.468 C 750.659 469.201 749.984 461.157 749.918 454.889 z"/>
<path transform="translate(0,0)" fill="rgb(39,39,40)" d="M 303.703 668.9 L 304.36 669.695 C 304.135 682.118 279.728 703.208 268.969 708.952 C 254.317 716.774 244.758 718.126 229.259 713.783 L 228.535 712.363 C 262.151 718.687 287.441 695.671 303.703 668.9 z"/>
<path transform="translate(0,0)" fill="rgb(21,21,21)" d="M 823.219 429.628 L 825.492 431.332 C 828.427 441.252 826.183 476.496 827.942 490.593 C 826.963 489.973 824.616 488.156 824.23 487.349 C 820.483 479.513 821.714 436.783 823.219 429.628 z"/>
<path transform="translate(0,0)" fill="rgb(21,21,21)" d="M 1084.35 456.461 C 1089.7 459.789 1091.81 472.16 1090.95 478.037 C 1088.25 496.464 1077.03 498.575 1061.11 496.811 C 1058.9 496.241 1058.99 496.319 1057.26 494.846 C 1059.27 493.407 1068.17 493.839 1072.07 492.771 C 1089.97 487.872 1088.38 471.477 1084.35 456.461 z"/>
<path transform="translate(0,0)" fill="rgb(21,21,21)" d="M 65.0489 935.885 C 74.0531 941.615 73.1166 966.659 64.5581 973.348 C 57.3203 979.004 47.9684 977.221 39.63 976.925 L 37.4425 974.867 C 42.4045 969.747 75.5586 984.67 65.0489 935.885 z"/>
<path transform="translate(0,0)" fill="rgb(21,21,21)" d="M 161.458 934.652 C 162.393 935.342 163.221 936.165 163.917 937.096 C 173.198 949.743 169.951 967.753 157.034 976.739 C 149.528 977.579 146.578 977.408 139.116 976.93 C 137.151 976.24 137.107 976.07 135.539 974.808 C 137.732 973.328 147.084 974.509 151.656 972.867 C 168.601 966.779 166.089 948.822 161.458 934.652 z"/>
<path transform="translate(0,0)" fill="rgb(21,21,21)" d="M 690.405 452.577 C 691.627 453.642 691.214 453.321 691.919 454.977 C 691.021 463.922 685.395 488.11 681.679 496.265 C 679.213 497.93 676.256 497.431 673.098 497.378 C 672.138 496.331 672.56 496.858 672.237 495.159 C 683.528 486.966 683.211 465.461 690.405 452.577 z"/>
<path transform="translate(0,0)" fill="rgb(21,21,21)" d="M 118.22 933.458 L 120.197 933.098 L 121.282 933.996 C 105.434 952.708 131.743 959.097 87.4464 964.033 C 87.0319 960.889 86.7096 961.714 87.772 959.095 C 95.5786 955.405 106.522 963.693 111.632 950.402 C 113.929 944.425 110.031 938.569 112.269 933.994 L 118.22 933.458 z"/>
<path transform="translate(0,0)" fill="rgb(21,21,21)" d="M 758.122 493.584 C 761.371 495.511 761.406 501.087 761.03 504.424 C 759.182 520.829 737.804 518.483 726.234 516.71 C 724.273 516.136 724.422 516.143 723.047 514.605 C 726.658 512.515 742.827 516.467 749.361 511.697 C 755.91 506.918 756.411 501.124 758.122 493.584 z"/>
<path transform="translate(0,0)" fill="rgb(21,21,21)" d="M 1117.65 455.266 L 1120.27 454.489 L 1122.22 455.694 L 1122.88 455.351 L 1123.1 455.94 C 1118.56 458.238 1115.89 459.762 1111.66 462.568 C 1110.35 467.716 1110.25 488.94 1110.03 495.882 C 1108.72 497.25 1109.51 496.677 1107.13 496.979 C 1105.16 494.527 1106.64 463.593 1106.92 457.552 L 1117.65 455.266 z"/>
<path transform="translate(0,0)" fill="rgb(39,39,40)" d="M 872.531 674.878 C 872.555 678.561 861.013 713.938 859.085 720.426 C 855.663 731.748 852.69 743.201 850.174 754.757 C 846.866 745.933 866.522 680.476 872.531 674.878 z"/>
<path transform="translate(0,0)" fill="rgb(21,21,21)" d="M 1146.77 455.492 C 1148.03 454.987 1148.92 455.213 1150.37 455.266 L 1151.11 456.411 C 1147.86 459.054 1146.07 457.194 1140.69 459.579 C 1137.24 464.698 1137.91 489.527 1137.75 497.063 C 1134.57 497.716 1135.63 497.988 1133.3 496.628 C 1133.94 484.234 1134.34 471.829 1134.52 459.42 C 1137.28 457.375 1142.78 457.104 1146.77 455.492 z"/>
<path transform="translate(0,0)" fill="rgb(21,21,21)" d="M 213.927 934.016 C 218.565 933.828 229.461 934.465 233.433 936.493 C 224.518 944.474 216.513 927.73 207.725 948.641 C 206.669 954.556 209.876 961.505 206.835 963.761 C 201.137 959.178 201.848 944.66 206.655 939.484 C 208.65 937.337 211.455 935.564 213.927 934.016 z"/>
<path transform="translate(0,0)" fill="rgb(21,21,21)" d="M 274.131 935.696 C 281.437 939.878 279.471 957.817 278.779 965.175 C 274.979 971.177 274.254 972.272 268.622 976.722 C 260.985 977.618 258.61 977.491 251.073 976.887 C 248.682 976.006 249.199 976.602 248.164 974.79 C 251.595 973.388 260.129 973.828 264.274 973.827 C 279.913 965.035 279.208 951.125 274.131 935.696 z"/>
<path transform="translate(0,0)" fill="rgb(21,21,21)" d="M 403.774 934.072 C 405.313 933.953 422.46 934.679 423.652 935.033 L 424.057 936.601 C 417.442 944.323 408.347 928.255 398.493 947.47 C 397.217 953.878 399.076 958.204 398.023 963.086 L 396.636 962.632 C 389.813 951.912 393.749 940.803 403.774 934.072 z"/>
<path transform="translate(0,0)" fill="url(#Gradient2)" d="M 1185.47 932.669 C 1187.59 939.007 1179.27 968.446 1175.7 975.205 C 1173.32 977.326 1170.86 977.04 1167.52 977.261 L 1167.55 975.462 C 1180.13 966.343 1176.96 944.421 1185.47 932.669 z"/>
<path transform="translate(0,0)" fill="rgb(21,21,21)" d="M 118.829 974.361 C 121.685 976.485 122.118 978.853 122.13 982.27 C 122.194 1000.25 100.253 998.089 88.0644 996.829 C 86.0584 996.33 86.1804 996.413 84.8456 994.837 C 87.4688 993.571 104.255 993.849 108.457 993.749 C 111.417 991.786 114.662 989.369 117.597 987.29 L 118.829 974.361 z"/>
<path transform="translate(0,0)" fill="rgb(21,21,21)" d="M 781.041 452.872 C 784.93 453.341 787.662 453.717 790.13 456.537 C 782.121 463.417 773.458 451.689 773.815 479.833 L 774.516 480.521 L 774.531 482.154 L 772.85 481.85 C 763.97 473.167 770.106 458.037 781.041 452.872 z"/>
<path transform="translate(0,0)" fill="rgb(21,21,21)" d="M 139.545 934.088 C 144.327 933.73 147.92 933.116 151.573 936.1 C 143.918 944.741 138.56 929.271 135.333 954.819 C 135.958 957.638 136.599 959.376 136.048 962.21 L 134.433 962.45 C 126.143 954.44 132.24 940.873 139.545 934.088 z"/>
<path transform="translate(0,0)" fill="rgb(39,39,40)" d="M 451.739 935.28 C 454.622 934.655 455.071 934.474 457.848 935.726 C 454.329 938.069 449.869 938.368 445.648 939.003 C 443.395 948.437 443.147 963.483 443.037 973.25 C 442.567 976.235 443.001 975.127 440.764 977.517 L 439.392 976.701 C 439.451 966.561 440.063 948.835 441.285 939.096 C 443.1 937.399 448.632 936.307 451.739 935.28 z"/>
<path transform="translate(0,0)" fill="rgb(21,21,21)" d="M 251.607 934.085 C 255.296 933.833 260.242 933.401 263.263 935.603 L 263.261 936.869 C 258.315 939.888 257.185 937.728 251.584 939.912 C 247.96 943.565 247.868 950.055 247.259 955.247 C 247.951 958.061 248.475 959.315 248.06 962.209 L 246.504 962.388 C 238.214 953.903 243.935 941.006 251.607 934.085 z"/>
<path transform="translate(0,0)" fill="rgb(21,21,21)" d="M 42.7733 934.101 C 43.5291 934.033 44.2868 933.987 45.0453 933.964 C 47.7181 933.888 52.9643 934.086 54.9286 935.976 C 49.9206 943.234 38.8449 929.47 37.6793 956.487 C 38.374 959.064 38.8132 959.868 38.3581 962.413 L 36.6741 962.09 C 29.8781 952.366 34.0839 940.963 42.7733 934.101 z"/>
<path transform="translate(0,0)" fill="rgb(21,21,21)" d="M 1061.87 454.074 C 1066.09 453.659 1071.57 452.829 1073.79 456.904 C 1068.94 459.702 1067.46 457.909 1061.86 459.808 C 1058.16 462.969 1057.43 470.04 1056.78 474.646 C 1057.31 477.428 1057.77 478.771 1057.31 481.597 L 1055.97 481.914 C 1049.25 473.602 1053.97 460.437 1061.87 454.074 z"/>
<path transform="translate(0,0)" fill="rgb(21,21,21)" d="M 14.3886 910.726 C 14.8721 911.315 15.3557 911.903 15.8393 912.492 C 16.4963 928.062 16.4962 954.925 16.9683 969.399 C 10.6308 965.723 13.8516 919.053 14.3886 910.726 z"/>
<path transform="translate(0,0)" fill="rgb(39,39,40)" d="M 944.499 625.763 C 945.987 627.135 945.88 627.04 946.576 628.953 C 945.779 630.458 945.009 631.976 944.266 633.508 C 936.001 650.6 931.149 670.75 937.64 689.23 L 935.912 689.078 C 927.698 665.37 935.186 646.957 944.499 625.763 z"/>
<path transform="translate(0,0)" fill="rgb(21,21,21)" d="M 1161.15 453.861 C 1168.18 457.733 1165.59 491.211 1164.62 498.664 C 1162.89 497.928 1162.17 497.375 1160.65 496.341 C 1162.23 484.107 1162.02 466.028 1161.15 453.861 z"/>
<path transform="translate(0,0)" fill="rgb(21,21,21)" d="M 853.026 454.187 C 856.382 453.857 858.974 453.341 862.17 454.516 L 862.766 455.924 C 859.375 458.183 855.081 459.148 851.064 460.998 C 847.806 464.803 848.124 471.294 848.134 476.168 C 848.577 479.013 849.178 479.669 848.11 481.957 L 846.365 481.081 C 840.548 470.972 843.894 460.732 853.026 454.187 z"/>
<path transform="translate(0,0)" fill="rgb(21,21,21)" d="M 86.8608 973.29 C 95.4277 972.661 100.316 973.008 108.308 975.829 L 108.736 977.121 C 105.912 978.607 104.021 978.188 100.797 978.051 L 94.0813 979.034 C 93.5831 979.465 93.0801 979.89 92.5726 980.31 C 90.4125 982.112 87.8102 984.367 85.1196 984.121 C 84.3248 980.815 85.8966 976.77 86.8608 973.29 z"/>
<path transform="translate(0,0)" fill="rgb(21,21,21)" d="M 1152.41 942.674 L 1153.83 944.501 C 1154.47 952.676 1151.27 966.912 1147.32 974.103 C 1145.52 977.386 1143.75 977.122 1140.27 978.029 C 1138.94 976.366 1139.41 977.298 1139.02 975.036 C 1147.58 968.762 1149.98 953.049 1152.41 942.674 z"/>
<path transform="translate(0,0)" fill="rgb(39,39,40)" d="M 409.9 610.076 C 411.315 612.237 408.486 616.295 407.241 618.354 C 397.22 634.928 393.239 644.332 389.346 663.15 C 388.69 662.449 388.283 661.551 388.188 660.595 C 387.01 648.159 402.093 619.451 409.9 610.076 z"/>
<path transform="translate(0,0)" fill="rgb(21,21,21)" d="M 725.453 493.122 C 730.666 493.034 744.15 492.731 747.393 497.109 C 745.444 498.872 744.599 498.183 741.25 498.042 C 723.277 497.429 734.069 499.737 725.239 506.185 L 724.093 505.087 C 723.267 500.849 724.46 497.338 725.453 493.122 z"/>
<path transform="translate(0,0)" fill="rgb(21,21,21)" d="M 119.315 15.6519 L 120.443 16.632 C 121.007 18.0246 121.561 19.51 121.484 21.0321 C 120.526 39.9182 100.878 37.9416 87.6061 36.9009 L 85.5037 35.3356 C 87.472 33.7132 105.217 33.8941 109.287 33.7523 C 118.65 27.7417 118.736 26.7124 119.315 15.6519 z"/>
<path transform="translate(0,0)" fill="rgb(39,39,40)" d="M 351.214 934.799 C 356.917 939.101 356.097 972.812 353.773 978.808 C 353.644 978.714 353.515 978.62 353.386 978.525 C 353.188 978.365 350.977 976.432 350.976 976.434 C 351.901 964.067 352.666 946.491 351.214 934.799 z"/>
<path transform="translate(0,0)" fill="rgb(21,21,21)" d="M 87.2118 14.3231 C 96.2209 13.7903 99.1639 13.436 107.799 15.899 L 108.245 17.051 C 105.248 18.5911 102.801 18.1303 99.3665 17.9986 C 90.2616 19.3847 90.9836 22.7601 85.5362 23.5083 C 84.8069 20.178 86.1201 18.006 87.2118 14.3231 z"/>
<path transform="translate(0,0)" fill="rgb(21,21,21)" d="M 468.093 933.777 C 474.232 938.085 471.903 970.751 470.543 978.017 C 470.042 977.853 468.315 976.851 468.343 976.409 C 469.215 962.376 469.654 947.703 468.093 933.777 z"/>
<path transform="translate(0,0)" fill="rgb(21,21,21)" d="M 166.05 0.671478 L 167.554 2.01585 C 167.123 6.72414 160.293 12.2053 156.714 15.5426 C 149.418 16.5875 145.979 16.8773 138.623 16.8965 L 136.727 15.355 C 139.504 12.8236 148.805 15.4924 159.589 9.8741 C 161.602 6.77777 163.89 3.68345 166.05 0.671478 z"/>
<path transform="translate(0,0)" fill="rgb(21,21,21)" d="M 1042.47 491.418 L 1044.45 491.455 L 1044.51 493.182 C 1039.93 497.98 1027.29 497.22 1021.03 496.997 L 1018.75 495.648 L 1019.13 494.506 C 1026.73 492.472 1033.73 494.011 1042.47 491.418 z"/>
<path transform="translate(0,0)" fill="rgb(39,39,40)" d="M 225.476 638.015 C 225.996 642.705 218.699 663.498 221.681 670.802 C 221.971 671.514 222.547 678.216 222.738 679.639 C 215.834 671.61 217.858 646.023 225.476 638.015 z"/>
<path transform="translate(0,0)" fill="url(#Gradient1)" d="M 422.79 971.377 L 423.99 971.188 L 425.089 972.069 L 424.442 974.068 C 418.328 978.448 407.312 977.151 400.217 976.369 L 398.481 975.698 L 398.206 974.554 C 406.75 972.903 414.541 974.017 422.79 971.377 z"/>
<path transform="translate(0,0)" fill="rgb(21,21,21)" d="M 91.4027 934.285 L 97.2782 933.57 L 99.0385 935.374 L 100.981 934.464 L 100.165 934.094 L 100.926 934.843 C 95.1372 939.085 92.6227 935.639 90.5702 944.271 C 90.6139 945.871 90.5451 947.335 90.4937 948.929 L 89.4024 949.829 L 87.5039 948.56 C 84.9297 941.754 86.2801 938.851 91.4027 934.285 z"/>
<path transform="translate(0,0)" fill="rgb(21,21,21)" d="M 232.987 971.365 L 234.067 971.815 L 234.566 973.282 C 230.267 977.862 215.507 977.082 209.236 976.637 L 206.998 975.049 C 208.771 973.616 226.921 972.979 232.987 971.365 z"/>
<path transform="translate(0,0)" fill="rgb(21,21,21)" d="M 1217.82 952.926 C 1220.7 956.747 1217.35 966.98 1215.63 970.983 C 1213.3 976.398 1212.5 975.938 1207.43 977.853 L 1206.42 975.971 C 1213.65 966.665 1214.39 964.584 1217.82 952.926 z"/>
<path transform="translate(0,0)" fill="rgb(39,39,40)" d="M 326.443 951.377 C 327.982 951.966 327.4 951.667 328.577 953.031 C 328.603 959.692 328.338 972.15 326.502 978.297 C 325.2 977.416 324.907 977.027 323.806 975.946 C 324.49 967.736 325.369 959.544 326.443 951.377 z"/>
<path transform="translate(0,0)" fill="rgb(39,39,40)" d="M 837.587 700.938 C 838.513 701.709 838.123 701.216 838.35 702.757 C 831.382 708.945 823.897 712.151 815.469 715.85 L 814.6 714.489 C 815.119 712.53 832.461 704.285 837.587 700.938 z"/>
<path transform="translate(0,0)" fill="rgb(89,105,205)" d="M 283.658 991.705 L 285.914 995.182 C 288.248 994.569 288.701 994.188 290.805 992.935 C 286.642 999.327 281.599 1007.09 276.173 1012.31 L 283.658 991.705 z"/>
<path transform="translate(0,0)" fill="rgb(39,39,40)" d="M 531.48 658.745 C 532.014 662.421 526.658 683.124 525.361 687.483 C 522.5 682.132 526.849 663.364 531.48 658.745 z"/>
<path transform="translate(0,0)" fill="rgb(39,39,40)" d="M 301.945 638.456 L 303.357 638.322 L 303.942 639.322 C 299.217 643.352 283.096 642.64 276.815 641.861 C 275.794 641.748 275.922 641.626 274.936 641.021 C 275.822 640.466 297.86 639.019 301.945 638.456 z"/>
<path transform="translate(0,0)" fill="rgb(21,21,21)" d="M 1022.69 454.419 C 1027.35 453.997 1038.28 454.117 1042.67 455.552 L 1043.09 457.279 L 1041.18 458.646 C 1035.32 457.431 1023.76 458.146 1021.61 456.424 L 1022.69 454.419 z"/>
<path transform="translate(0,0)" fill="rgb(21,21,21)" d="M 1198.67 932.554 C 1204.01 935.296 1205.81 954.607 1206.64 960.35 C 1203.53 957.68 1199.96 938.129 1198.67 932.554 z"/>
<path transform="translate(0,0)" fill="rgb(21,21,21)" d="M 1132.08 932.86 C 1136.68 936.833 1138.38 953.87 1138.74 960.157 C 1136.16 958.136 1132.08 936.934 1132.08 932.86 z"/>
<path transform="translate(0,0)" fill="rgb(21,21,21)" d="M 422.553 12.6197 L 424.248 12.2235 L 423.938 13.1364 C 417.38 17.0949 408.589 16.202 400.753 16.278 C 399.168 15.8469 399.861 16.242 398.701 14.9098 C 400.26 14.0388 418.454 13.1588 422.553 12.6197 z"/>
<path transform="translate(0,0)" fill="rgb(21,21,21)" d="M 1159.45 932.584 C 1164.28 935.418 1167.43 956.494 1166.61 961.944 C 1165.73 960.501 1159.42 934.55 1159.45 932.584 z"/>
<path transform="translate(0,0)" fill="rgb(21,21,21)" d="M 1149.59 0.820677 C 1150.4 1.92791 1150.18 1.96619 1150.49 3.49172 C 1148.39 10.7355 1147.85 13.9142 1141.6 17.3977 C 1141.06 17.0021 1140.46 16.149 1139.99 15.5782 C 1144.4 10.3022 1146.33 6.77771 1149.59 0.820677 z"/>
<path transform="translate(0,0)" fill="rgb(21,21,21)" d="M 1178.74 0.930928 L 1179.49 2.18434 C 1178.36 9.37289 1176.06 14.5021 1169.42 17.6768 L 1168.42 15.6496 C 1174.03 9.69469 1174.55 7.21476 1178.74 0.930928 z"/>
<path transform="translate(0,0)" fill="rgb(21,21,21)" d="M 501.485 452.325 C 505.857 455.222 506.798 465.962 508.507 472.582 L 505.872 471.124 C 503.248 465.493 502.377 458.469 501.485 452.325 z"/>
<path transform="translate(0,0)" fill="rgb(21,21,21)" d="M 232.131 12.439 L 232.713 13.4383 C 228.423 16.0105 214.292 16.1852 208.992 16.3179 L 208.11 14.8195 C 211.5 12.9387 223.643 14.6618 232.131 12.439 z"/>
<path transform="translate(0,0)" fill="rgb(39,39,40)" d="M 978.434 591.673 L 980.517 592.232 L 980.679 593.426 C 977.331 595.383 974.01 597.385 970.716 599.431 L 968.715 599.171 L 968.421 597.858 C 970.614 595.303 975.285 593.273 978.434 591.673 z"/>
<path transform="translate(0,0)" fill="rgb(39,39,40)" d="M 455.694 466.817 C 459.601 470.973 454.87 477.379 451.516 480.245 C 449.444 476.459 454.415 475.507 455.694 466.817 z"/>
</svg>